HIERARCHY
ROOT Hips
{
    OFFSET 0.000000 0.000000 0.000000
    CHANNELS 6 Xposition Yposition Zposition Zrotation Xrotation Yrotation
    JOINT Spine
    {
        OFFSET -0.000000 14.517291 0.000000
        CHANNELS 3 Zrotation Xrotation Yrotation
        JOINT Spine1
        {
            OFFSET -0.000000 37.558300 0.000000
            CHANNELS 3 Zrotation Xrotation Yrotation
            JOINT Neck
            {
                OFFSET -0.000000 37.404057 3.400369
                CHANNELS 3 Zrotation Xrotation Yrotation
                JOINT Head
                {
                    OFFSET -0.000000 24.785618 -3.540803
                    CHANNELS 3 Zrotation Xrotation Yrotation
                    End Site
                    {
                        OFFSET -0.000000 35.408028 0.000000
                    }
                }
            }
            JOINT LeftShoulder
            {
                OFFSET 6.992933 33.973492 -0.192664
                CHANNELS 3 Zrotation Xrotation Yrotation
                JOINT LeftArm
                {
                    OFFSET 21.527611 0.000000 0.000000
                    CHANNELS 3 Zrotation Xrotation Yrotation
                    JOINT LeftForeArm
                    {
                        OFFSET 56.353916 0.000000 0.000000
                        CHANNELS 3 Zrotation Xrotation Yrotation
                        JOINT LeftHand
                        {
                            OFFSET 47.774071 0.000000 0.000000
                            CHANNELS 3 Zrotation Xrotation Yrotation
                            End Site
                            {
                                OFFSET 26.556021 0.000000 0.000000
                            }
                        }
                    }
                }
            }
            JOINT RightShoulder
            {
                OFFSET -7.065357 33.973492 -0.192664
                CHANNELS 3 Zrotation Xrotation Yrotation
                JOINT RightArm
                {
                    OFFSET -21.527611 0.000000 0.000000
                    CHANNELS 3 Zrotation Xrotation Yrotation
                    JOINT RightForeArm
                    {
                        OFFSET -56.353916 0.000000 0.000000
                        CHANNELS 3 Zrotation Xrotation Yrotation
                        JOINT RightHand
                        {
                            OFFSET -47.774071 0.000000 0.000000
                            CHANNELS 3 Zrotation Xrotation Yrotation
                            End Site
                            {
                                OFFSET -26.556021 0.000000 0.000000
                            }
                        }
                    }
                }
            }
        }
    }
    JOINT LeftUpLeg
    {
        OFFSET 17.704014 0.000000 0.000000
        CHANNELS 3 Zrotation Xrotation Yrotation
        JOINT LeftLeg
        {
            OFFSET -0.000000 -81.181816 0.000000
            CHANNELS 3 Zrotation Xrotation Yrotation
            JOINT LeftFoot
            {
                OFFSET -0.000000 -62.821102 0.000000
                CHANNELS 3 Zrotation Xrotation Yrotation
                JOINT LeftToeBase
                {
                    OFFSET -0.000000 -11.507608 26.556021
                    CHANNELS 3 Zrotation Xrotation Yrotation
                    End Site
                    {
                        OFFSET -0.000000 0.000000 7.081605
                    }
                }
            }
        }
    }
    JOINT RightUpLeg
    {
        OFFSET -17.704014 0.000000 0.000000
        CHANNELS 3 Zrotation Xrotation Yrotation
        JOINT RightLeg
        {
            OFFSET -0.000000 -81.181816 0.000000
            CHANNELS 3 Zrotation Xrotation Yrotation
            JOINT RightFoot
            {
                OFFSET -0.000000 -62.821102 0.000000
                CHANNELS 3 Zrotation Xrotation Yrotation
                JOINT RightToeBase
                {
                    OFFSET -0.000000 -11.507608 26.556021
                    CHANNELS 3 Zrotation Xrotation Yrotation
                    End Site
                    {
                        OFFSET -0.000000 0.000000 7.081605
                    }
                }
            }
        }
    }
}
MOTION
Frames:    11
Frame Time:    0.008333
-31.607918    150.077744    -32.099819    2.232730    -0.072918    22.526751    -4.996844    2.634229    3.724245    0.124078    1.661494    1.202944    -4.010975    -2.464285    -14.158306    14.458664    0.174010    -12.051638    8.963490    0.527058    -18.022614    -26.440033    5.902751    -78.854485    21.568544    -57.086636    -70.444450    -20.318617    -43.098209    -35.158199    1.677465    10.520544    1.683107    35.175934    13.279424    54.388359    -31.423531    -31.649321    53.777817    15.505624    -12.341407    32.147381    -2.186539    -33.055508    -27.793371    -12.889885    28.208691    -22.860392    -7.846733    -1.897225    31.982805    0.000000    0.000000    0.000000    0.563098    8.137271    -18.120754    3.277415    32.233803    -4.850321    -0.234075    -35.251091    -7.777075    0.000000    0.000000    0.000000    
-31.615431    150.075790    -32.102085    2.239619    -0.076886    22.541628    -4.974123    2.638196    3.735804    0.096458    1.664809    1.207308    -4.040242    -2.445165    -14.176556    14.510745    0.160122    -12.057416    8.914935    0.588974    -17.961786    -26.524134    6.063580    -78.679878    21.012819    -56.780010    -70.972771    -20.070755    -42.968719    -34.953548    1.670735    10.528581    1.669703    35.184059    13.287534    54.391293    -31.463594    -31.656046    53.739429    15.506912    -12.334125    32.191345    -2.194550    -33.050205    -27.796770    -12.888026    28.202787    -22.878597    -7.860988    -1.892194    31.996307    0.000000    0.000000    0.000000    0.563893    8.142285    -18.130768    3.281102    32.235645    -4.827588    -0.257528    -35.253407    -7.817819    0.000000    0.000000    0.000000    
-31.619671    150.073883    -32.107704    2.244507    -0.072709    22.554287    -4.949374    2.637763    3.742467    0.066158    1.665561    1.210206    -4.037253    -2.444837    -14.184578    14.507797    0.154310    -12.066028    8.873871    0.650052    -17.900339    -26.467234    6.370369    -78.527466    20.864756    -56.676926    -71.220329    -19.897797    -42.929977    -34.758842    1.672046    10.519318    1.657917    35.170063    13.322675    54.389610    -31.525528    -31.672575    53.693604    15.509153    -12.335081    32.189960    -2.206020    -33.049347    -27.799641    -12.878668    28.192682    -22.875614    -7.854000    -1.880182    31.970995    0.000000    0.000000    0.000000    0.559491    8.138866    -18.141479    3.278900    32.237408    -4.852499    -0.218870    -35.262901    -7.780724    0.000000    0.000000    0.000000    
-31.627537    150.073380    -32.111721    2.250331    -0.073422    22.565441    -4.930634    2.641349    3.752658    0.045807    1.663031    1.213975    -4.061706    -2.413441    -14.204729    14.550962    0.127374    -12.074678    8.832933    0.712289    -17.846018    -26.458527    6.649010    -78.352493    20.555540    -56.531418    -71.614677    -19.731941    -42.895180    -34.546001    1.669116    10.510600    1.653699    35.202583    13.303387    54.369434    -31.504656    -31.645050    53.717304    15.474048    -12.319338    32.170570    -2.213194    -33.043888    -27.807840    -12.873072    28.178976    -22.880236    -7.866660    -1.875169    31.970558    0.000000    0.000000    0.000000    0.559437    8.136014    -18.149620    3.273729    32.246906    -4.861417    -0.215823    -35.269135    -7.759930    0.000000    0.000000    0.000000    
-31.634706    150.070633    -32.114071    2.256745    -0.068557    22.577570    -4.910667    2.635823    3.763199    0.015062    1.667336    1.218147    -4.056904    -2.381196    -14.220451    14.562077    0.085048    -12.086274    8.803576    0.765884    -17.793756    -26.474844    6.923061    -78.181252    20.207455    -56.384411    -72.047783    -19.625525    -42.855011    -34.372272    1.680891    10.510814    1.639896    35.214466    13.288341    54.362583    -31.500490    -31.633303    53.726379    15.493746    -12.297134    32.184341    -2.223227    -33.045658    -27.806252    -12.866509    28.173569    -22.896887    -7.873538    -1.870985    31.975094    0.000000    0.000000    0.000000    0.558468    8.133539    -18.161592    3.269449    32.249252    -4.871680    -0.205500    -35.278126    -7.750978    0.000000    0.000000    0.000000    
-31.642672    150.070114    -32.113522    2.260475    -0.072162    22.587662    -4.890598    2.637025    3.773662    0.000671    1.670777    1.221973    -4.075611    -2.356841    -14.238402    14.589507    0.059907    -12.095753    8.754126    0.831890    -17.729746    -26.465963    7.186637    -78.023499    19.879299    -56.252995    -72.464882    -19.506670    -42.831764    -34.208149    1.676977    10.500780    1.639174    35.240269    13.281296    54.339149    -31.495564    -31.630074    53.747978    15.467704    -12.296897    32.178047    -2.230072    -33.037994    -27.820824    -12.862772    28.168074    -22.899260    -7.868170    -1.871960    31.983259    0.000000    0.000000    0.000000    0.561402    8.144326    -18.172943    3.265464    32.235653    -4.876460    -0.204370    -35.279846    -7.733197    0.000000    0.000000    0.000000    
-31.649738    150.069138    -32.116268    2.264720    -0.064234    22.596716    -4.873091    2.627063    3.785357    -0.016114    1.678470    1.226388    -4.080377    -2.333669    -14.255934    14.589844    0.022854    -12.109455    8.705486    0.900830    -17.668493    -26.504192    7.417772    -77.839531    19.430351    -56.066643    -73.018616    -19.331341    -42.797905    -34.009739    1.678500    10.502517    1.626684    35.258877    13.256736    54.333668    -31.484241    -31.606043    53.764885    15.455565    -12.275148    32.163174    -2.237015    -33.040924    -27.816326    -12.856654    28.158485    -22.911928    -7.875567    -1.868235    31.984369    0.000000    0.000000    0.000000    0.557342    8.137575    -18.165567    3.280817    32.236176    -4.857753    -0.245376    -35.288441    -7.790878    0.000000    0.000000    0.000000    
-31.661961    150.070526    -32.119652    2.265949    -0.061513    22.603222    -4.858952    2.632860    3.801213    -0.030076    1.667167    1.231931    -4.085077    -2.303231    -14.274297    14.606752    -0.014746    -12.121876    8.670968    0.979810    -17.603100    -26.518679    7.656758    -77.702354    19.110426    -55.923988    -73.448738    -19.182394    -42.769897    -33.812206    1.685613    10.488740    1.622106    35.288280    13.235108    54.294132    -31.435389    -31.593721    53.824848    15.451108    -12.268678    32.156700    -2.235823    -33.040615    -27.814575    -12.854898    28.145908    -22.909912    -7.883747    -1.861753    31.980169    0.000000    0.000000    0.000000    0.560169    8.129008    -18.169399    3.275048    32.245113    -4.842820    -0.256231    -35.287071    -7.813415    0.000000    0.000000    0.000000    
-31.671398    150.071304    -32.117332    2.268583    -0.062092    22.612820    -4.844069    2.633831    3.814619    -0.031121    1.665650    1.236476    -4.116614    -2.276593    -14.296238    14.632900    -0.045238    -12.132939    8.615342    1.062407    -17.530460    -26.560848    7.863443    -77.552910    18.703341    -55.746086    -73.968315    -19.023960    -42.738548    -33.577278    1.677955    10.494424    1.609552    35.307499    13.222452    54.285206    -31.431702    -31.584299    53.841534    15.448213    -12.256115    32.148045    -2.236174    -33.033073    -27.807785    -12.841898    28.133169    -22.919638    -7.891457    -1.857767    31.965778    0.000000    0.000000    0.000000    0.566538    8.129483    -18.195606    3.257680    32.247513    -4.835429    -0.247214    -35.280209    -7.800218    0.000000    0.000000    0.000000    
-31.684166    150.073761    -32.118980    2.267370    -0.057774    22.617210    -4.822875    2.631089    3.831810    -0.057337    1.665555    1.242806    -4.108220    -2.243771    -14.320092    14.642096    -0.093424    -12.153179    8.586402    1.140597    -17.459465    -26.565920    8.113802    -77.396889    18.435156    -55.608299    -74.395004    -18.875856    -42.689011    -33.408203    1.698812    10.485424    1.603742    35.330379    13.199763    54.254150    -31.401581    -31.575075    53.869968    15.456393    -12.246728    32.167992    -2.230518    -33.034004    -27.799664    -12.840221    28.119772    -22.924500    -7.888692    -1.852870    31.965117    0.000000    0.000000    0.000000    0.571056    8.123991    -18.186382    3.275411    32.241806    -4.865845    -0.262640    -35.280071    -7.800001    0.000000    0.000000    0.000000    
-31.695396    150.075958    -32.116646    2.267496    -0.059010    22.623873    -4.813408    2.628333    3.853178    -0.051003    1.673587    1.249965    -4.135888    -2.211067    -14.342273    14.672835    -0.147175    -12.161773    8.534424    1.199556    -17.394220    -26.721643    8.278000    -77.235504    17.954781    -55.325237    -74.973274    -18.726868    -42.557137    -33.179886    1.688288    10.483991    1.589060    35.352612    13.187353    54.235809    -31.397633    -31.572655    53.884415    15.459810    -12.241170    32.160328    -2.230608    -33.033501    -27.788136    -12.825778    28.124926    -22.939850    -7.901981    -1.854985    31.952400    0.000000    0.000000    0.000000    0.576767    8.124690    -18.193649    3.278242    32.241283    -4.850587    -0.279435    -35.274071    -7.830978    0.000000    0.000000    0.000000    
